<svg xmlns="http://www.w3.org/2000/svg" data-name="Layer 1" viewBox="0 0 512 512"><rect width="497" height="311" x="7.5" y="100.5" fill="#fddd5a" rx="30"/><path fill="#fed030" d="M474.5 100.5h-45a29.998 29.998 0 0 1 30 30v251a29.998 29.998 0 0 1-30 30h45a29.998 29.998 0 0 0 30-30v-251a29.998 29.998 0 0 0-30-30Z"/><path fill="#e4222e" d="M7.5 214h497v15H7.5z"/><path fill="#e4222e" d="M175.51 101v310.5h-15V101a4.188 4.188 0 0 1 .03-.5h14.94a4.188 4.188 0 0 1 .03.5Z"/><path fill="#fed030" d="m106.477 190.934 49.006 25.094a23 23 0 0 1 0 40.944l-49.006 25.094a23 23 0 0 1-33.483-20.472v-50.188a23 23 0 0 1 33.483-20.472Z"/><path fill="#fed030" d="m229.523 190.934-49.006 25.094a23 23 0 0 0 0 40.944l49.006 25.094a23 23 0 0 0 33.483-20.472v-50.188a23 23 0 0 0-33.483-20.472Z"/><path fill="#eb304a" d="m106.477 175.934 49.006 25.094a23 23 0 0 1 0 40.944l-49.006 25.094a23 23 0 0 1-33.483-20.472v-50.188a23 23 0 0 1 33.483-20.472Z"/><path fill="#eb304a" d="m229.523 175.934-49.006 25.094a23 23 0 0 0 0 40.944l49.006 25.094a23 23 0 0 0 33.483-20.472v-50.188a23 23 0 0 0-33.483-20.472Z"/><path fill="#e4222e" d="m229.524 175.934-6.061 3.103a22.844 22.844 0 0 1 12.758 20.584v50.188a22.71 22.71 0 0 1-7.397 16.9l.7.357a23 23 0 0 0 33.482-20.472v-50.188a23 23 0 0 0-33.482-20.472Z"/><circle cx="168" cy="219" r="30.5" fill="#fff"/><path fill="#e1e1e3" d="M168 188.5a30.4 30.4 0 0 0-11.495 2.248 30.501 30.501 0 0 1 0 56.504A30.5 30.5 0 1 0 168 188.5Z"/><path fill="#fff" d="M444.5 315.5h-135a7.5 7.5 0 0 1 0-15h135a7.5 7.5 0 1 1 0 15zm-60 30h-75a7.5 7.5 0 0 1 0-15h75a7.5 7.5 0 1 1 0 15z"/></svg>