<svg xmlns="http://www.w3.org/2000/svg" enable-background="new 0 0 32 32" viewBox="0 0 32 32"><path d="M24.38,1.73999H7.62c-1.88,0-3.46002,1.34998-3.75,3.21002L0.54999,25.85999C0.37,26.95996,0.69,28.07996,1.40997,28.92999C2.13,29.76996,3.19,30.26001,4.29999,30.26001h23.40002c1.10999,0,2.16998-0.49005,2.89001-1.33002c0.71997-0.85004,1.03998-1.97003,0.85999-3.07001L28.13,4.95001C27.84003,3.08997,26.26001,1.73999,24.38,1.73999z M22.77002,12.07996c0,3.74005-3.03003,6.78003-6.77002,6.78003s-6.77002-3.03998-6.77002-6.78003V7.91998c0-0.83002,0.67004-1.5,1.5-1.5c0.82001,0,1.5,0.66998,1.5,1.5v4.15997c0,2.08002,1.69,3.78003,3.77002,3.78003s3.77002-1.70001,3.77002-3.78003V7.91998c0-0.83002,0.67999-1.5,1.5-1.5c0.82996,0,1.5,0.66998,1.5,1.5V12.07996z"/></svg>