<svg version="1.1" id="Layer_1"
	xmlns="http://www.w3.org/2000/svg"
	xmlns:xlink="http://www.w3.org/1999/xlink" x="0px" y="0px" viewBox="0 0 98 95" enable-background="new 0 0 98 95" xml:space="preserve">
	<path fill="#007BFF" opacity="1.000000" stroke="none" d="
M12.870716,76.897934 
	C13.052783,69.703552 16.471167,65.356110 22.685133,62.808922 
	C23.821926,62.342934 25.079374,60.539242 25.123465,59.311466 
	C25.362423,52.657288 25.079208,45.984539 25.310598,39.329826 
	C25.413715,36.364269 23.577887,35.906799 21.557980,35.002537 
	C15.538623,32.307819 12.346339,26.718910 13.080635,20.567152 
	C13.791779,14.609355 18.207960,9.804264 24.164169,8.507549 
	C30.202822,7.192886 36.531754,9.874823 39.487164,15.385623 
	C42.770752,21.508348 41.183544,27.262598 36.993855,32.949120 
	C46.362171,41.702686 55.582554,50.321938 64.809196,58.934483 
	C66.026215,60.070499 67.255707,61.194782 68.513931,62.284657 
	C70.418144,63.934093 71.700165,66.340500 75.227631,64.542557 
	C78.582443,62.832619 80.945915,61.535099 80.503998,57.054329 
	C79.983368,51.775497 80.243958,46.400978 80.436661,41.077751 
	C80.544273,38.105217 80.007088,36.347298 76.766197,35.157513 
	C71.035995,33.053848 67.859695,27.575867 68.129028,21.845804 
	C68.399925,16.082378 72.323425,10.955832 77.845528,9.149964 
	C83.593109,7.270359 89.708710,9.146469 93.530289,13.961645 
	C99.197639,21.102501 96.152542,32.135120 87.272980,35.443253 
	C84.514519,36.470940 83.778511,37.712589 83.855484,40.411407 
	C84.026375,46.403000 84.024391,52.406090 83.855659,58.397812 
	C83.780281,61.074333 84.472954,62.444157 87.197510,63.530319 
	C95.959465,67.023346 97.429604,74.244827 95.094055,82.022392 
	C93.077621,88.737267 84.273750,92.158371 77.183510,89.703064 
	C70.018677,87.221931 66.287788,79.462578 69.000748,71.786720 
	C69.948502,69.105255 69.473145,67.631691 67.497787,65.821144 
	C57.063660,56.257561 46.814930,46.490383 36.298264,37.019951 
	C35.061020,35.905792 32.426785,35.600925 30.725428,36.036129 
	C29.779118,36.278187 28.936403,38.809299 28.885406,40.336758 
	C28.679873,46.492916 28.649725,52.666523 28.915783,58.818066 
	C28.976406,60.219765 30.151787,62.211533 31.369808,62.820881 
	C39.037209,66.656700 42.400707,72.339287 40.807968,79.510803 
	C39.361309,86.024574 33.490475,90.357765 26.391047,90.151726 
	C19.070568,89.939278 14.411655,85.512428 12.870716,76.897934 
z"/>
</svg>