<?xml version="1.0" encoding="UTF-8" standalone="no"?>
<!DOCTYPE svg PUBLIC "-//W3C//DTD SVG 1.1//EN" "http://www.w3.org/Graphics/SVG/1.1/DTD/svg11.dtd">
<svg xmlns="http://www.w3.org/2000/svg" version="1.1" viewBox="0.00 0.00 254.00 207.00">
    <g stroke-width="2.00" fill="none" stroke-linecap="butt">
        <path stroke="#80d7f3" vector-effect="non-scaling-stroke" d="
  M 171.5006 51.7165
  A 7.18 7.18 0.0 0 0 171.4828 41.5625
  L 133.0058 3.2196
  A 7.18 7.18 0.0 0 0 122.8518 3.2373
  L 84.5794 41.6435
  A 7.18 7.18 0.0 0 0 84.5972 51.7975
  L 123.0742 90.1404
  A 7.18 7.18 0.0 0 0 133.2282 90.1227
  L 171.5006 51.7165" />
        <path stroke="#8fa4c2" vector-effect="non-scaling-stroke" d="
  M 74.7438 69.3170
  A 7.17 7.17 0.0 0 0 74.7438 59.1771
  L 58.9329 43.3662
  A 7.17 7.17 0.0 0 0 48.7930 43.3662
  L 32.9962 59.1630
  A 7.17 7.17 0.0 0 0 32.9962 69.3029
  L 48.8071 85.1138
  A 7.17 7.17 0.0 0 0 58.9470 85.1138
  L 74.7438 69.3170" />
        <path stroke="#80d7f3" vector-effect="non-scaling-stroke" d="
  M 101.47 127.97
  C 106.82 122.82 112.59 115.46 118.53 112.27
  Q 131.01 105.58 142.40 116.61
  Q 149.49 123.48 174.10 148.39
  C 180.45 154.81 185.74 162.35 193.50 154.61
  Q 214.62 133.54 235.69 112.41
  C 240.75 107.34 240.11 104.24 235.10 99.24
  Q 214.52 78.65 193.91 58.03
  C 187.15 51.25 184.03 54.18 178.05 60.14
  Q 162.41 75.69 146.82 91.27
  Q 139.12 98.97 135.43 100.75
  C 126.14 105.22 118.43 101.41 111.48 94.52
  Q 103.26 86.36 94.98 78.23
  C 91.39 74.70 87.25 72.45 83.22 76.46
  Q 72.05 87.54 60.94 98.68
  C 56.70 102.93 54.19 106.82 58.98 111.78
  Q 64.82 117.84 81.50 134.34
  C 89.89 142.65 94.74 134.46 101.47 127.97" />
        <path stroke="#8fa4c2" vector-effect="non-scaling-stroke" d="
  M 30.5554 90.9446
  A 5.17 5.17 0.0 0 0 23.2439 90.9318
  L 11.5846 102.5505
  A 5.17 5.17 0.0 0 0 11.5719 109.8620
  L 23.2046 121.5354
  A 5.17 5.17 0.0 0 0 30.5161 121.5482
  L 42.1754 109.9295
  A 5.17 5.17 0.0 0 0 42.1881 102.6180
  L 30.5554 90.9446" />
        <path stroke="#80d7f3" vector-effect="non-scaling-stroke" d="
  M 168.1585 167.6342
  A 7.36 7.36 0.0 0 0 168.1404 157.2256
  L 133.1342 122.3415
  A 7.36 7.36 0.0 0 0 122.7256 122.3596
  L 87.8415 157.3658
  A 7.36 7.36 0.0 0 0 87.8596 167.7744
  L 122.8658 202.6585
  A 7.36 7.36 0.0 0 0 133.2744 202.6404
  L 168.1585 167.6342" />
        <path stroke="#8fa4c2" vector-effect="non-scaling-stroke" d="
  M 74.7172 153.1387
  A 7.20 7.20 0.0 0 0 74.7172 142.9564
  L 59.0336 127.2728
  A 7.20 7.20 0.0 0 0 48.8513 127.2728
  L 33.0828 143.0413
  A 7.20 7.20 0.0 0 0 33.0828 153.2236
  L 48.7664 168.9072
  A 7.20 7.20 0.0 0 0 58.9487 168.9072
  L 74.7172 153.1387" />
    </g>
    <path fill="#ffffff" d="
  M 0.00 0.00
  L 254.00 0.00
  L 254.00 207.00
  L 0.00 207.00
  L 0.00 0.00
  Z
  M 171.5006 51.7165
  A 7.18 7.18 0.0 0 0 171.4828 41.5625
  L 133.0058 3.2196
  A 7.18 7.18 0.0 0 0 122.8518 3.2373
  L 84.5794 41.6435
  A 7.18 7.18 0.0 0 0 84.5972 51.7975
  L 123.0742 90.1404
  A 7.18 7.18 0.0 0 0 133.2282 90.1227
  L 171.5006 51.7165
  Z
  M 74.7438 69.3170
  A 7.17 7.17 0.0 0 0 74.7438 59.1771
  L 58.9329 43.3662
  A 7.17 7.17 0.0 0 0 48.7930 43.3662
  L 32.9962 59.1630
  A 7.17 7.17 0.0 0 0 32.9962 69.3029
  L 48.8071 85.1138
  A 7.17 7.17 0.0 0 0 58.9470 85.1138
  L 74.7438 69.3170
  Z
  M 101.47 127.97
  C 106.82 122.82 112.59 115.46 118.53 112.27
  Q 131.01 105.58 142.40 116.61
  Q 149.49 123.48 174.10 148.39
  C 180.45 154.81 185.74 162.35 193.50 154.61
  Q 214.62 133.54 235.69 112.41
  C 240.75 107.34 240.11 104.24 235.10 99.24
  Q 214.52 78.65 193.91 58.03
  C 187.15 51.25 184.03 54.18 178.05 60.14
  Q 162.41 75.69 146.82 91.27
  Q 139.12 98.97 135.43 100.75
  C 126.14 105.22 118.43 101.41 111.48 94.52
  Q 103.26 86.36 94.98 78.23
  C 91.39 74.70 87.25 72.45 83.22 76.46
  Q 72.05 87.54 60.94 98.68
  C 56.70 102.93 54.19 106.82 58.98 111.78
  Q 64.82 117.84 81.50 134.34
  C 89.89 142.65 94.74 134.46 101.47 127.97
  Z
  M 30.5554 90.9446
  A 5.17 5.17 0.0 0 0 23.2439 90.9318
  L 11.5846 102.5505
  A 5.17 5.17 0.0 0 0 11.5719 109.8620
  L 23.2046 121.5354
  A 5.17 5.17 0.0 0 0 30.5161 121.5482
  L 42.1754 109.9295
  A 5.17 5.17 0.0 0 0 42.1881 102.6180
  L 30.5554 90.9446
  Z
  M 168.1585 167.6342
  A 7.36 7.36 0.0 0 0 168.1404 157.2256
  L 133.1342 122.3415
  A 7.36 7.36 0.0 0 0 122.7256 122.3596
  L 87.8415 157.3658
  A 7.36 7.36 0.0 0 0 87.8596 167.7744
  L 122.8658 202.6585
  A 7.36 7.36 0.0 0 0 133.2744 202.6404
  L 168.1585 167.6342
  Z
  M 74.7172 153.1387
  A 7.20 7.20 0.0 0 0 74.7172 142.9564
  L 59.0336 127.2728
  A 7.20 7.20 0.0 0 0 48.8513 127.2728
  L 33.0828 143.0413
  A 7.20 7.20 0.0 0 0 33.0828 153.2236
  L 48.7664 168.9072
  A 7.20 7.20 0.0 0 0 58.9487 168.9072
  L 74.7172 153.1387
  Z" />
    <rect fill="#01aee7" x="-34.34" y="-34.29" transform="translate(128.04,46.68) rotate(44.9)" width="68.68" height="68.58" rx="7.18"/>
    <rect fill="#1f4985" x="-18.35" y="-18.34" transform="translate(53.87,64.24) rotate(45.0)" width="36.70" height="36.68" rx="7.17"/>
    <path fill="#01aee7" d="
  M 101.47 127.97
  C 94.74 134.46 89.89 142.65 81.50 134.34
  Q 64.82 117.84 58.98 111.78
  C 54.19 106.82 56.70 102.93 60.94 98.68
  Q 72.05 87.54 83.22 76.46
  C 87.25 72.45 91.39 74.70 94.98 78.23
  Q 103.26 86.36 111.48 94.52
  C 118.43 101.41 126.14 105.22 135.43 100.75
  Q 139.12 98.97 146.82 91.27
  Q 162.41 75.69 178.05 60.14
  C 184.03 54.18 187.15 51.25 193.91 58.03
  Q 214.52 78.65 235.10 99.24
  C 240.11 104.24 240.75 107.34 235.69 112.41
  Q 214.62 133.54 193.50 154.61
  C 185.74 162.35 180.45 154.81 174.10 148.39
  Q 149.49 123.48 142.40 116.61
  Q 131.01 105.58 118.53 112.27
  C 112.59 115.46 106.82 122.82 101.47 127.97
  Z" />
    <rect fill="#1f4985" x="-13.40" y="-13.41" transform="translate(26.88,106.24) rotate(-44.9)" width="26.80" height="26.82" rx="5.17"/>
    <rect fill="#01aee7" x="-32.07" y="-32.07" transform="translate(128.00,162.50) rotate(44.9)" width="64.14" height="64.14" rx="7.36"/>
    <rect fill="#1f4985" x="-18.29" y="-18.35" transform="translate(53.90,148.09) rotate(45.0)" width="36.58" height="36.70" rx="7.20"/>
</svg>
