<?xml version="1.0" encoding="UTF-8" standalone="no"?>
<!DOCTYPE svg PUBLIC "-//W3C//DTD SVG 1.1//EN" "http://www.w3.org/Graphics/SVG/1.1/DTD/svg11.dtd">
<svg xmlns="http://www.w3.org/2000/svg" version="1.1" viewBox="0.00 0.00 428.00 108.00">
  <g stroke-width="2.00" fill="none" stroke-linecap="butt">
    <path stroke="#81d7f3" vector-effect="non-scaling-stroke" d="
  M 76.51 66.77
  C 73.73 48.37 54.28 45.15 39.16 43.92
  C 28.04 43.01 25.70 37.20 27.93 26.85
  C 29.65 18.84 40.94 20.00 47.42 20.74
  C 55.56 21.66 55.44 26.27 55.88 32.96
  A 2.28 2.27 -0.6 0 0 58.04 35.07
  Q 65.73 35.43 72.57 35.35
  Q 75.48 35.32 75.69 32.67
  C 76.94 17.32 69.69 4.58 53.21 3.40
  C 35.96 2.17 13.02 -0.05 7.96 21.62
  C 6.83 26.47 7.13 33.15 7.37 38.18
  C 8.56 63.15 31.50 61.25 49.24 65.51
  C 56.71 67.31 57.71 72.89 56.93 79.69
  C 56.05 87.32 50.52 87.39 43.73 87.60
  Q 36.33 87.82 33.26 86.98
  C 26.94 85.26 27.52 79.17 27.12 74.07
  A 1.60 1.60 0.0 0 0 25.54 72.60
  L 9.77 72.51
  Q 8.43 72.51 7.95 73.76
  Q 6.91 76.46 7.13 80.20
  Q 8.28 99.00 23.89 103.66
  Q 28.44 105.02 38.77 105.04
  C 52.83 105.08 67.39 106.33 74.30 92.37
  C 77.91 85.06 77.76 75.03 76.51 66.77" />
    <path stroke="#81d7f3" vector-effect="non-scaling-stroke" d="
  M 144.28 88.09
  C 138.40 86.51 129.21 87.50 122.94 87.50
  C 116.06 87.49 112.49 86.18 112.35 78.74
  Q 112.16 68.11 112.36 49.93
  C 112.43 43.44 116.14 41.70 122.21 41.61
  Q 133.04 41.46 143.58 41.39
  A 1.28 1.28 0.0 0 0 144.84 40.27
  Q 145.78 32.73 144.81 25.20
  Q 144.75 24.69 144.26 24.55
  Q 142.42 23.99 140.51 23.98
  C 130.42 23.92 116.59 22.98 108.41 25.39
  Q 97.36 28.64 93.76 39.57
  C 90.85 48.41 92.23 63.46 92.28 73.98
  C 92.34 86.92 93.18 96.64 104.92 102.20
  Q 109.24 104.25 117.05 104.72
  Q 130.46 105.54 144.05 104.70
  A 0.86 0.84 -87.9 0 0 144.84 103.95
  Q 145.79 96.35 144.84 88.74
  A 0.78 0.77 4.6 0 0 144.28 88.09" />
    <path stroke="#81d7f3" vector-effect="non-scaling-stroke" d="
  M 203.42 96.76
  L 203.74 102.92
  A 1.85 1.85 0.0 0 0 205.41 104.67
  C 209.01 105.02 219.64 105.94 222.78 104.16
  Q 223.26 103.88 223.31 103.32
  Q 223.74 98.42 223.77 93.50
  Q 223.92 59.77 223.42 25.72
  Q 223.41 24.59 222.28 24.42
  C 212.52 22.94 200.56 23.98 190.57 24.02
  C 176.18 24.09 164.25 24.90 159.25 38.84
  Q 157.52 43.66 157.38 55.80
  Q 157.14 76.56 157.60 82.69
  Q 158.90 100.09 175.47 103.99
  C 184.73 106.17 197.34 105.92 202.99 96.65
  A 0.23 0.23 0.0 0 1 203.42 96.76" />
    <path stroke="#81d7f3" vector-effect="non-scaling-stroke" d="
  M 261.64 32.53
  A 0.36 0.36 0.0 0 1 260.98 32.26
  Q 261.73 28.64 260.61 25.09
  A 1.05 1.04 -3.6 0 0 259.79 24.38
  C 254.09 23.40 246.64 24.04 242.53 24.28
  Q 241.93 24.32 241.76 24.90
  Q 241.25 26.66 241.25 28.50
  Q 241.15 65.50 241.28 102.96
  A 1.66 1.66 0.0 0 0 242.76 104.60
  Q 251.38 105.56 259.98 104.51
  A 0.88 0.87 5.1 0 0 260.71 103.91
  Q 261.22 102.38 261.22 100.75
  Q 261.20 76.65 261.54 52.57
  C 261.75 38.39 275.15 41.73 284.50 41.35
  Q 286.17 41.28 286.18 39.60
  L 286.24 26.39
  A 1.97 1.97 0.0 0 0 284.71 24.46
  C 276.03 22.46 266.65 24.86 261.64 32.53" />
    <path stroke="#81d7f3" vector-effect="non-scaling-stroke" d="
  M 318.03 24.24
  C 304.20 24.82 295.12 34.38 295.04 48.25
  Q 294.95 61.46 295.02 74.65
  Q 295.08 86.08 296.74 90.51
  C 303.57 108.68 327.42 105.16 343.94 104.94
  Q 345.30 104.92 347.33 104.36
  A 0.85 0.84 82.4 0 0 347.95 103.54
  L 347.93 89.20
  A 0.97 0.96 9.3 0 0 347.27 88.29
  Q 344.96 87.51 342.50 87.51
  Q 332.28 87.53 322.06 87.45
  C 316.72 87.40 315.26 82.99 315.13 78.16
  Q 314.63 58.37 315.09 49.81
  Q 315.54 41.37 323.75 41.50
  Q 335.29 41.69 346.18 41.27
  A 1.88 1.88 0.0 0 0 347.99 39.37
  L 347.89 25.72
  A 1.52 1.51 -89.2 0 0 346.43 24.21
  Q 332.17 23.66 318.03 24.24" />
    <path stroke="#81d7f3" vector-effect="non-scaling-stroke" d="
  M 384.21 24.22
  C 370.78 24.62 360.53 33.11 360.23 47.02
  Q 360.05 55.78 360.25 74.90
  Q 360.36 86.15 362.02 90.57
  C 366.06 101.30 376.21 104.86 387.50 104.98
  Q 399.41 105.11 420.09 104.93
  C 422.06 104.91 424.22 105.17 424.43 102.78
  Q 425.00 96.42 424.36 89.65
  A 1.95 1.95 0.0 0 0 422.45 87.89
  Q 406.94 87.65 391.21 87.74
  C 380.88 87.80 379.68 84.46 380.01 74.74
  A 1.31 1.31 0.0 0 1 381.32 73.47
  Q 399.70 73.57 417.93 73.44
  C 421.88 73.41 424.81 73.90 424.91 69.24
  C 425.14 59.54 426.27 46.53 422.80 38.13
  C 416.11 21.91 399.26 23.77 384.21 24.22" />
    <path stroke="#81d7f3" vector-effect="non-scaling-stroke" d="
  M 177.64 80.18
  C 177.76 85.45 181.28 87.39 186.02 87.46
  C 194.19 87.58 203.39 87.86 203.46 76.73
  Q 203.56 59.99 203.48 42.85
  Q 203.47 41.57 202.19 41.54
  Q 194.70 41.39 187.47 41.58
  C 181.34 41.75 177.59 43.37 177.57 50.01
  Q 177.50 73.89 177.64 80.18" />
    <path stroke="#81d7f3" vector-effect="non-scaling-stroke" d="
  M 381.72 60.02
  L 403.60 59.94
  A 1.61 1.61 0.0 0 0 405.21 58.33
  L 405.17 49.28
  A 8.06 7.80 -0.2 0 0 397.09 41.50
  L 388.11 41.54
  A 8.06 7.80 -0.2 0 0 380.08 49.36
  L 380.11 58.41
  A 1.61 1.61 0.0 0 0 381.72 60.02" />
  </g>
  <path fill="#ffffff" d="
  M 0.00 0.00
  L 428.00 0.00
  L 428.00 108.00
  L 0.00 108.00
  L 0.00 0.00
  Z
  M 76.51 66.77
  C 73.73 48.37 54.28 45.15 39.16 43.92
  C 28.04 43.01 25.70 37.20 27.93 26.85
  C 29.65 18.84 40.94 20.00 47.42 20.74
  C 55.56 21.66 55.44 26.27 55.88 32.96
  A 2.28 2.27 -0.6 0 0 58.04 35.07
  Q 65.73 35.43 72.57 35.35
  Q 75.48 35.32 75.69 32.67
  C 76.94 17.32 69.69 4.58 53.21 3.40
  C 35.96 2.17 13.02 -0.05 7.96 21.62
  C 6.83 26.47 7.13 33.15 7.37 38.18
  C 8.56 63.15 31.50 61.25 49.24 65.51
  C 56.71 67.31 57.71 72.89 56.93 79.69
  C 56.05 87.32 50.52 87.39 43.73 87.60
  Q 36.33 87.82 33.26 86.98
  C 26.94 85.26 27.52 79.17 27.12 74.07
  A 1.60 1.60 0.0 0 0 25.54 72.60
  L 9.77 72.51
  Q 8.43 72.51 7.95 73.76
  Q 6.91 76.46 7.13 80.20
  Q 8.28 99.00 23.89 103.66
  Q 28.44 105.02 38.77 105.04
  C 52.83 105.08 67.39 106.33 74.30 92.37
  C 77.91 85.06 77.76 75.03 76.51 66.77
  Z
  M 144.28 88.09
  C 138.40 86.51 129.21 87.50 122.94 87.50
  C 116.06 87.49 112.49 86.18 112.35 78.74
  Q 112.16 68.11 112.36 49.93
  C 112.43 43.44 116.14 41.70 122.21 41.61
  Q 133.04 41.46 143.58 41.39
  A 1.28 1.28 0.0 0 0 144.84 40.27
  Q 145.78 32.73 144.81 25.20
  Q 144.75 24.69 144.26 24.55
  Q 142.42 23.99 140.51 23.98
  C 130.42 23.92 116.59 22.98 108.41 25.39
  Q 97.36 28.64 93.76 39.57
  C 90.85 48.41 92.23 63.46 92.28 73.98
  C 92.34 86.92 93.18 96.64 104.92 102.20
  Q 109.24 104.25 117.05 104.72
  Q 130.46 105.54 144.05 104.70
  A 0.86 0.84 -87.9 0 0 144.84 103.95
  Q 145.79 96.35 144.84 88.74
  A 0.78 0.77 4.6 0 0 144.28 88.09
  Z
  M 203.42 96.76
  L 203.74 102.92
  A 1.85 1.85 0.0 0 0 205.41 104.67
  C 209.01 105.02 219.64 105.94 222.78 104.16
  Q 223.26 103.88 223.31 103.32
  Q 223.74 98.42 223.77 93.50
  Q 223.92 59.77 223.42 25.72
  Q 223.41 24.59 222.28 24.42
  C 212.52 22.94 200.56 23.98 190.57 24.02
  C 176.18 24.09 164.25 24.90 159.25 38.84
  Q 157.52 43.66 157.38 55.80
  Q 157.14 76.56 157.60 82.69
  Q 158.90 100.09 175.47 103.99
  C 184.73 106.17 197.34 105.92 202.99 96.65
  A 0.23 0.23 0.0 0 1 203.42 96.76
  Z
  M 261.64 32.53
  A 0.36 0.36 0.0 0 1 260.98 32.26
  Q 261.73 28.64 260.61 25.09
  A 1.05 1.04 -3.6 0 0 259.79 24.38
  C 254.09 23.40 246.64 24.04 242.53 24.28
  Q 241.93 24.32 241.76 24.90
  Q 241.25 26.66 241.25 28.50
  Q 241.15 65.50 241.28 102.96
  A 1.66 1.66 0.0 0 0 242.76 104.60
  Q 251.38 105.56 259.98 104.51
  A 0.88 0.87 5.1 0 0 260.71 103.91
  Q 261.22 102.38 261.22 100.75
  Q 261.20 76.65 261.54 52.57
  C 261.75 38.39 275.15 41.73 284.50 41.35
  Q 286.17 41.28 286.18 39.60
  L 286.24 26.39
  A 1.97 1.97 0.0 0 0 284.71 24.46
  C 276.03 22.46 266.65 24.86 261.64 32.53
  Z
  M 318.03 24.24
  C 304.20 24.82 295.12 34.38 295.04 48.25
  Q 294.95 61.46 295.02 74.65
  Q 295.08 86.08 296.74 90.51
  C 303.57 108.68 327.42 105.16 343.94 104.94
  Q 345.30 104.92 347.33 104.36
  A 0.85 0.84 82.4 0 0 347.95 103.54
  L 347.93 89.20
  A 0.97 0.96 9.3 0 0 347.27 88.29
  Q 344.96 87.51 342.50 87.51
  Q 332.28 87.53 322.06 87.45
  C 316.72 87.40 315.26 82.99 315.13 78.16
  Q 314.63 58.37 315.09 49.81
  Q 315.54 41.37 323.75 41.50
  Q 335.29 41.69 346.18 41.27
  A 1.88 1.88 0.0 0 0 347.99 39.37
  L 347.89 25.72
  A 1.52 1.51 -89.2 0 0 346.43 24.21
  Q 332.17 23.66 318.03 24.24
  Z
  M 384.21 24.22
  C 370.78 24.62 360.53 33.11 360.23 47.02
  Q 360.05 55.78 360.25 74.90
  Q 360.36 86.15 362.02 90.57
  C 366.06 101.30 376.21 104.86 387.50 104.98
  Q 399.41 105.11 420.09 104.93
  C 422.06 104.91 424.22 105.17 424.43 102.78
  Q 425.00 96.42 424.36 89.65
  A 1.95 1.95 0.0 0 0 422.45 87.89
  Q 406.94 87.65 391.21 87.74
  C 380.88 87.80 379.68 84.46 380.01 74.74
  A 1.31 1.31 0.0 0 1 381.32 73.47
  Q 399.70 73.57 417.93 73.44
  C 421.88 73.41 424.81 73.90 424.91 69.24
  C 425.14 59.54 426.27 46.53 422.80 38.13
  C 416.11 21.91 399.26 23.77 384.21 24.22
  Z" />
  <path fill="#02aee7" d="
  M 39.16 43.92
  C 54.28 45.15 73.73 48.37 76.51 66.77
  C 77.76 75.03 77.91 85.06 74.30 92.37
  C 67.39 106.33 52.83 105.08 38.77 105.04
  Q 28.44 105.02 23.89 103.66
  Q 8.28 99.00 7.13 80.20
  Q 6.91 76.46 7.95 73.76
  Q 8.43 72.51 9.77 72.51
  L 25.54 72.60
  A 1.60 1.60 0.0 0 1 27.12 74.07
  C 27.52 79.17 26.94 85.26 33.26 86.98
  Q 36.33 87.82 43.73 87.60
  C 50.52 87.39 56.05 87.32 56.93 79.69
  C 57.71 72.89 56.71 67.31 49.24 65.51
  C 31.50 61.25 8.56 63.15 7.37 38.18
  C 7.13 33.15 6.83 26.47 7.96 21.62
  C 13.02 -0.05 35.96 2.17 53.21 3.40
  C 69.69 4.58 76.94 17.32 75.69 32.67
  Q 75.48 35.32 72.57 35.35
  Q 65.73 35.43 58.04 35.07
  A 2.28 2.27 -0.6 0 1 55.88 32.96
  C 55.44 26.27 55.56 21.66 47.42 20.74
  C 40.94 20.00 29.65 18.84 27.93 26.85
  C 25.70 37.20 28.04 43.01 39.16 43.92
  Z" />
  <path fill="#02aee7" d="
  M 144.28 88.09
  A 0.78 0.77 4.6 0 1 144.84 88.74
  Q 145.79 96.35 144.84 103.95
  A 0.86 0.84 -87.9 0 1 144.05 104.70
  Q 130.46 105.54 117.05 104.72
  Q 109.24 104.25 104.92 102.20
  C 93.18 96.64 92.34 86.92 92.28 73.98
  C 92.23 63.46 90.85 48.41 93.76 39.57
  Q 97.36 28.64 108.41 25.39
  C 116.59 22.98 130.42 23.92 140.51 23.98
  Q 142.42 23.99 144.26 24.55
  Q 144.75 24.69 144.81 25.20
  Q 145.78 32.73 144.84 40.27
  A 1.28 1.28 0.0 0 1 143.58 41.39
  Q 133.04 41.46 122.21 41.61
  C 116.14 41.70 112.43 43.44 112.36 49.93
  Q 112.16 68.11 112.35 78.74
  C 112.49 86.18 116.06 87.49 122.94 87.50
  C 129.21 87.50 138.40 86.51 144.28 88.09
  Z" />
  <path fill="#02aee7" d="
  M 203.42 96.76
  A 0.23 0.23 0.0 0 0 202.99 96.65
  C 197.34 105.92 184.73 106.17 175.47 103.99
  Q 158.90 100.09 157.60 82.69
  Q 157.14 76.56 157.38 55.80
  Q 157.52 43.66 159.25 38.84
  C 164.25 24.90 176.18 24.09 190.57 24.02
  C 200.56 23.98 212.52 22.94 222.28 24.42
  Q 223.41 24.59 223.42 25.72
  Q 223.92 59.77 223.77 93.50
  Q 223.74 98.42 223.31 103.32
  Q 223.26 103.88 222.78 104.16
  C 219.64 105.94 209.01 105.02 205.41 104.67
  A 1.85 1.85 0.0 0 1 203.74 102.92
  L 203.42 96.76
  Z
  M 177.64 80.18
  C 177.76 85.45 181.28 87.39 186.02 87.46
  C 194.19 87.58 203.39 87.86 203.46 76.73
  Q 203.56 59.99 203.48 42.85
  Q 203.47 41.57 202.19 41.54
  Q 194.70 41.39 187.47 41.58
  C 181.34 41.75 177.59 43.37 177.57 50.01
  Q 177.50 73.89 177.64 80.18
  Z" />
  <path fill="#02aee7" d="
  M 261.64 32.53
  C 266.65 24.86 276.03 22.46 284.71 24.46
  A 1.97 1.97 0.0 0 1 286.24 26.39
  L 286.18 39.60
  Q 286.17 41.28 284.50 41.35
  C 275.15 41.73 261.75 38.39 261.54 52.57
  Q 261.20 76.65 261.22 100.75
  Q 261.22 102.38 260.71 103.91
  A 0.88 0.87 5.1 0 1 259.98 104.51
  Q 251.38 105.56 242.76 104.60
  A 1.66 1.66 0.0 0 1 241.28 102.96
  Q 241.15 65.50 241.25 28.50
  Q 241.25 26.66 241.76 24.90
  Q 241.93 24.32 242.53 24.28
  C 246.64 24.04 254.09 23.40 259.79 24.38
  A 1.05 1.04 -3.6 0 1 260.61 25.09
  Q 261.73 28.64 260.98 32.26
  A 0.36 0.36 0.0 0 0 261.64 32.53
  Z" />
  <path fill="#02aee7" d="
  M 295.04 48.25
  C 295.12 34.38 304.20 24.82 318.03 24.24
  Q 332.17 23.66 346.43 24.21
  A 1.52 1.51 -89.2 0 1 347.89 25.72
  L 347.99 39.37
  A 1.88 1.88 0.0 0 1 346.18 41.27
  Q 335.29 41.69 323.75 41.50
  Q 315.54 41.37 315.09 49.81
  Q 314.63 58.37 315.13 78.16
  C 315.26 82.99 316.72 87.40 322.06 87.45
  Q 332.28 87.53 342.50 87.51
  Q 344.96 87.51 347.27 88.29
  A 0.97 0.96 9.3 0 1 347.93 89.20
  L 347.95 103.54
  A 0.85 0.84 82.4 0 1 347.33 104.36
  Q 345.30 104.92 343.94 104.94
  C 327.42 105.16 303.57 108.68 296.74 90.51
  Q 295.08 86.08 295.02 74.65
  Q 294.95 61.46 295.04 48.25
  Z" />
  <path fill="#02aee7" d="
  M 360.23 47.02
  C 360.53 33.11 370.78 24.62 384.21 24.22
  C 399.26 23.77 416.11 21.91 422.80 38.13
  C 426.27 46.53 425.14 59.54 424.91 69.24
  C 424.81 73.90 421.88 73.41 417.93 73.44
  Q 399.70 73.57 381.32 73.47
  A 1.31 1.31 0.0 0 0 380.01 74.74
  C 379.68 84.46 380.88 87.80 391.21 87.74
  Q 406.94 87.65 422.45 87.89
  A 1.95 1.95 0.0 0 1 424.36 89.65
  Q 425.00 96.42 424.43 102.78
  C 424.22 105.17 422.06 104.91 420.09 104.93
  Q 399.41 105.11 387.50 104.98
  C 376.21 104.86 366.06 101.30 362.02 90.57
  Q 360.36 86.15 360.25 74.90
  Q 360.05 55.78 360.23 47.02
  Z
  M 381.72 60.02
  L 403.60 59.94
  A 1.61 1.61 0.0 0 0 405.21 58.33
  L 405.17 49.28
  A 8.06 7.80 -0.2 0 0 397.09 41.50
  L 388.11 41.54
  A 8.06 7.80 -0.2 0 0 380.08 49.36
  L 380.11 58.41
  A 1.61 1.61 0.0 0 0 381.72 60.02
  Z" />
  <path fill="#ffffff" d="
  M 186.02 87.46
  C 181.28 87.39 177.76 85.45 177.64 80.18
  Q 177.50 73.89 177.57 50.01
  C 177.59 43.37 181.34 41.75 187.47 41.58
  Q 194.70 41.39 202.19 41.54
  Q 203.47 41.57 203.48 42.85
  Q 203.56 59.99 203.46 76.73
  C 203.39 87.86 194.19 87.58 186.02 87.46
  Z" />
  <path fill="#ffffff" d="
  M 381.72 60.02
  A 1.61 1.61 0.0 0 1 380.11 58.41
  L 380.08 49.36
  A 8.06 7.80 -0.2 0 1 388.11 41.54
  L 397.09 41.50
  A 8.06 7.80 -0.2 0 1 405.17 49.28
  L 405.21 58.33
  A 1.61 1.61 0.0 0 1 403.60 59.94
  L 381.72 60.02
  Z" />
</svg>
