<svg xmlns="http://www.w3.org/2000/svg" data-name="Layer 307" viewBox="0 0 47.65 47.65"><path fill="#4895ef" d="M41.54 0H6.11A6.12 6.12 0 0 0 0 6.11v32.68h6.68a3 3 0 0 1 3 3v5.83h31.86a6.12 6.12 0 0 0 6.11-6.11V6.08A6.12 6.12 0 0 0 41.54 0ZM23.79 28.45H7.9a1.5 1.5 0 1 1 0-3h15.89a1.5 1.5 0 0 1 0 3Zm0-7.9H7.9a1.5 1.5 0 1 1 0-3h15.89a1.5 1.5 0 0 1 0 3Zm0-7.89H7.9a1.5 1.5 0 1 1 0-3h15.89a1.5 1.5 0 0 1 0 3Zm11.22 21.62a.55.55 0 0 1-.84 0l-4.36-5.07h1.67a.55.55 0 0 0 .55-.55v-17a.55.55 0 0 1 .55-.55h4a.56.56 0 0 1 .56.55v17a.54.54 0 0 0 .55.55h1.7Z"/><path fill="#48cae4" d="m0 41.38 6.88 6.27v-4.5a1.77 1.77 0 0 0-1.77-1.77Z"/></svg><svg xmlns="http://www.w3.org/2000/svg" data-name="Layer 276" viewBox="0 0 47.65 47.65"><path fill="#231f20" d="M28.6 0v19.51a.68.68 0 0 1-1.17.55l-5-5.34a.65.65 0 0 0-1 0l-5 5.34a.68.68 0 0 1-1.17-.55V0Z"/><path fill="#231f20" d="M38.63 0h-7v25.57a1 1 0 0 1-1.71.73l-7.27-7a1 1 0 0 0-1.4 0l-7.27 7a1 1 0 0 1-1.71-.73V0H9.01a9 9 0 0 0-9 9v29.62a9 9 0 0 0 9 9h29.62a9 9 0 0 0 9-9V9.01a9 9 0 0 0-9-9.01Zm-6.22 42.35h-23a1.5 1.5 0 0 1 0-3h23a1.5 1.5 0 0 1 0 3Zm8.36-7H9.39a1.5 1.5 0 0 1 0-3h31.38a1.5 1.5 0 0 1 0 3Z"/></svg>